<svg id="svg" version="1.1" xmlns="http://www.w3.org/2000/svg" xmlns:xlink="http://www.w3.org/1999/xlink" width="400" height="267.1875" viewBox="0, 0, 400,267.1875"><g id="svgg"><path id="path0" d="M0.000 133.333 L 0.000 177.422 200.000 177.422 L 400.000 177.422 400.000 133.333 L 400.000 89.245 200.000 89.245 L 0.000 89.245 0.000 133.333 " stroke="none" fill="#fcfcfc" fill-rule="evenodd"></path><path id="path1" d="M0.000 44.222 L 0.000 88.444 200.000 88.444 L 400.000 88.444 400.000 44.222 L 400.000 0.000 200.000 0.000 L 0.000 0.000 0.000 44.222 " stroke="none" fill="#cc243c" fill-rule="evenodd"></path><path id="path2" d="M0.000 222.712 L 0.000 267.201 200.000 267.201 L 400.000 267.201 400.000 222.712 L 400.000 178.223 200.000 178.223 L 0.000 178.223 0.000 222.712 " stroke="none" fill="#44744c" fill-rule="evenodd"></path><path id="path3" d="M0.000 88.711 C 0.000 88.889,66.845 88.978,200.000 88.978 C 333.155 88.978,400.000 88.889,400.000 88.711 C 400.000 88.533,333.155 88.444,200.000 88.444 C 66.845 88.444,0.000 88.533,0.000 88.711 " stroke="none" fill="#dc5c6c" fill-rule="evenodd"></path><path id="path4" d="M100.022 89.178 C 155.108 89.215,245.168 89.215,300.156 89.178 C 355.144 89.141,310.073 89.111,200.000 89.111 C 89.927 89.111,44.936 89.141,100.022 89.178 M0.000 177.822 C 0.000 178.178,22.400 178.223,200.000 178.223 C 377.600 178.223,400.000 178.178,400.000 177.822 C 400.000 177.466,377.600 177.422,200.000 177.422 C 22.400 177.422,0.000 177.466,0.000 177.822 " stroke="none" fill="#acc4b4" fill-rule="evenodd"></path></g></svg>