<?xml version="1.0" encoding="UTF-8"?>
<svg id="Réteg_1" data-name="Réteg 1" xmlns="http://www.w3.org/2000/svg" viewBox="0 0 750 728.57">
  <defs>
    <style>
      .cls-1, .cls-2 {
        fill: #fff;
      }

      .cls-3 {
        fill: #df0831;
      }

      .cls-3, .cls-2, .cls-4, .cls-5, .cls-6, .cls-7, .cls-8 {
        fill-rule: evenodd;
      }

      .cls-4 {
        fill: #d1dbea;
      }

      .cls-5 {
        fill: #201d2b;
      }

      .cls-6 {
        fill: #b7c2d1;
      }

      .cls-7 {
        fill: #a3191f;
      }
    </style>
  </defs>
  <path class="cls-2" d="m667.83,399.87c-9.36,10.44-19.2,20.47-29.33,30.08-28.05,26.6-58.87,50.35-91.6,71.09-59.4,88.7-139.18,163.3-234.22,223.57l-6.25,3.96-5.74-4.67c-26.1-21.23-50.49-45.88-72.91-70.93-29.56-33.04-56.84-68.39-81.81-105.02-3.37-4.94-6.7-9.91-9.99-14.92-40.85,1.11-89.29-7.98-115.85-41.09-13.67-17.03-18.97-38.09-16.77-59.66,2.45-24.03,13.55-47.15,26.78-67.21-1.1-12.72-1.05-24.87.07-36.49-9.72-25.05-18.45-50.45-26.11-76.1l-1.57-5.27,3.51-4.23c3.4-4.09,7.11-8.08,10.77-11.93,9.65-10.16,19.84-19.88,30.28-29.23,36.54-32.71,77.23-61.61,119.55-86.29,62.34-36.36,129.45-64.14,199.02-83.23C456.58,7.36,550.62-2.44,644.76.51l8.06.25,1.67,7.89c1.44,6.82,2.49,13.92,3.43,20.81,2.44,17.94,3.93,36.08,4.7,54.17,1.02,23.86.8,47.88-.63,71.84,20.45-2.02,40.95,1.91,58.14,15.41,28,21.99,33.42,58.75,27.98,92.01-6.05,36.96-24.97,73.18-47.95,102.44-9.54,12.15-20.41,23.9-32.32,34.54"/>
  <path class="cls-2" d="m136,704.21c-5.76,3.57-12.02,6.15-18.74,7.52-19.73,4.01-39.47,8.02-59.2,12.03-24.61,5-48.27-8.82-55.7-32.86-4.23-13.7-2.46-27.75,2.87-40.86,5.97-14.7,11.95-29.41,17.93-44.11,5.98-14.71,11.95-29.42,17.93-44.12,4.08-10.04,10.01-19.14,17.47-27,9.15-9.64,20.16-16.97,33.33-19.64,16.88-3.43,33.77-6.87,50.65-10.3l25.86-5.26c26.58-5.4,53.16-10.81,79.74-16.21.13-.03.26-.05.29-.06l20.13-4.09c23.93-4.87,47.85-9.73,71.78-14.59l26.14-5.31c26.4-5.37,52.79-10.73,79.19-16.1l19.88-4.04c30.72-6.25,61.44-12.49,92.16-18.74l11.45-2.33c10.03-2.04,20.05-4.08,30.08-6.12l132.19-26.87-29.94,73.68c-4.4,10.81-8.79,21.62-13.18,32.44-4.39,10.8-8.78,21.61-13.17,32.41-4.07,10.01-10.03,19.06-17.44,26.91-7.23,7.66-15.7,13.88-25.51,17.48-.06.14-.12.29-.17.43-2.83,6.96-5.66,13.92-8.49,20.88l-8.6,21.18-22.4,4.55c-9.9,2.01-19.79,4.02-29.69,6.03l-38.94,7.92c-25.58,5.2-51.15,10.4-76.73,15.6l-76.42,15.53c-9.92,2.01-19.83,4.03-29.74,6.05l-68.17,13.86c-9.91,2.02-19.83,4.03-29.74,6.05l-31.09,6.32c-.08.02-.17.04-.26.05-18.83,3.83-37.67,7.66-56.5,11.49-6.37,1.29-12.89,1.39-19.23.2"/>
  <path class="cls-8" d="m13.94,249.55S223-2.43,644.44,10.77c0,0,91.72,433.1-337.26,705.16C223.15,647.58,81.71,476.36,13.94,249.55"/>
  <path class="cls-3" d="m68.27,261.59c27.15,82.12,65.79,161.12,112.88,233.64.99,1.31,33.9,44.21,107.48,66.46,0,0-34.1-.04-71.57-10.78,27.87,45.95,60.11,102.66,94.18,134.7,60.35-33.27,140.47-115.44,184.61-167.01,0,0-16.4,8.32-31.97,15.53,60.68-83.61,104.17-181.52,125.93-281.8,11.77-54.25,16.75-110.71,14.37-166.2-.37-8.7-.9-18.09-1.7-27.55-141.09,1.65-281.69,35.3-404.33,106.31-40.29,23.33-93.16,59.93-129.87,96.71"/>
  <path class="cls-7" d="m311.23,655.38c141.1-97.98,241.46-231.97,278.57-403.07,11.77-54.25,16.75-110.71,14.37-166.2-.37-8.7-.9-18.09-1.7-27.56l-122.97,49.63s19.95,273.13-168.28,547.2"/>
  <path class="cls-8" d="m607.53,215.12c14.5,4.88,28.91,10.02,43.25,15.4,36.38,13.66-3.92,28.06,30.31,46.52l9.11,4.91-7.05,7.57c-56.37,60.55-125.48,113.24-196.1,155.96-32.46,19.63-66.1,37.68-100.6,53.45-28.23,12.91-57.78,24.74-87.65,33.29l-6.85,1.96-2.73-6.58c-17.93-43.17-76.33-68.35-119.49-79.36-5.04,3.24-10.31,8.73-13.41,13.09-10.85,15.26-11.5,33.58-7.1,51.28l2.34,9.39-9.66.52c-38.42,2.08-88.05-4.97-113.75-37-12.02-14.98-16.5-33.19-14.56-52.2,2.39-23.41,13.98-46.25,27.13-65.57-9.11-88.46,39.44-147.97,116.43-184.81l.18-.1c9.33-5.13,20.44-9.56,30.36-13.29,27.73-10.43,56.93-18.09,85.98-23.74,108.75-21.16,224.55-15.71,333.01,4.08l21.74,3.97c-10.77,24.71-15.35,42.68-20.91,61.26"/>
  <path class="cls-6" d="m223.78,417.76s67.44,28.63,111.44,74.81c0,0-15.79,8.72-24.95,11.82-14.62-20.03-62.59-68.03-86.5-86.64"/>
  <path class="cls-4" d="m176.04,301.16s26.07,32.07-26.5,46.18c17.02-20.78,19.58-31.11,26.5-46.18"/>
  <path class="cls-2" d="m169.02,339.48c-4.8,2.94-11.15,5.63-19.48,7.86,12.18-14.87,16.95-24.38,21.22-34.11,2.76,7.45,3.9,16.98-1.74,26.25"/>
  <path class="cls-7" d="m71.56,373.96c-48.7,59.94-38.88,114.43,45.63,119.09-36.38-36.08,1.52-58.18,1.52-58.18,1.56-51.73,65.57-67.86,65.57-67.86-86.77,3.27-97.3,44.67-97.3,44.67-4.91-12.63,2.11-28.77,2.11-28.77-8.89-9.12-17.54-8.95-17.54-8.95"/>
  <path class="cls-3" d="m71.56,373.96c-48.7,59.94-38.88,114.43,45.63,119.09,0,0-98.32-27.31-28.1-110.14-8.89-9.12-17.54-8.95-17.54-8.95"/>
  <path class="cls-6" d="m535.86,309.88c37.16-49.52,48.92-84.12,64.4-120.26-83.8-7.2-214.19-11.68-266.74-3.93,0,0,14.96-12.75,36.36-24.47-9.58.72-19.34,1.64-29.19,2.78-51.2,7.99-155.92,32.75-213.1,105.47,0,0,3.46-24.03,23.6-49.6-50.59,29.6-85.34,71.74-85.16,130.04,8.47-23.05,33.12-38.09,33.12-38.09-13.04,23.28-2.17,55.87,21.11,45.32,23.28-10.55,43.96-71.09,43.96-71.09,37.12-16.06,64.25,3.57,64.25,3.57-18.81,1.1-29.42,3.49-36.25,7.93,2.38,11.62,6.09,42.71-20.11,50.65,0,0,20.28.19,25.97-17.26,96.09-4.3,128.04,23.48,128.04,23.48-54.89-4-81.68,4.21-81.68,4.21h0c71.7,16.42,105.08,46.5,105.08,46.5-53.36-10.67-95.25.63-95.25.63,71.08,27.67,102.24,74.89,102.28,74.93,38.91-24.2,73.97-55.24,104.38-88.4,13.07-14.25,25.55-29.16,37.32-44.58-74.4-34.87-179.8-48.87-179.8-48.87,127.47-14.08,217.42,11.04,217.42,11.04Z"/>
  <path class="cls-2" d="m462.19,390.16c7.8-8.59,15.4-17.41,22.74-26.44-31.85-13.55-134.04-53.28-254.43-61.17,0,0,125.39,31.03,231.69,87.62"/>
  <path class="cls-2" d="m583.23,229.5c4.53-9.97,11.35-26.38,17.03-39.88-183.11-19.64-266.75-3.93-266.75-3.93,0,0,14.96-12.75,36.36-24.47-9.58.72-19.33,1.64-29.19,2.78-51.2,7.99-155.93,32.74-213.1,105.47,0,0,3.46-24.03,23.6-49.6-50.59,29.6-85.34,71.74-85.16,130.04,8.47-23.05,33.12-38.09,33.12-38.09-13.04,23.28-2.17,55.87,21.11,45.32,23.28-10.55,43.96-71.09,43.96-71.09,0,0,40.06-33.82,166.85-30.99,0,0-19.79,8.48-48.05,24.63,0,0,112.86-16.95,252.84,30.2,8.97-10.14,16.34-20.01,24.07-35.43-24.86-8.89-120.66-39.4-179.88-50.77,43.21-5.19,125.15.38,203.18,5.83Z"/>
  <path class="cls-8" d="m544.03,242.72c-21.85,27.83-40.13,62.55-45.89,97.75-4.82,29.45-.77,62.68,24.19,82.28,24.96,19.6,58.19,15.66,85.67,3.99,32.83-13.94,62.23-39.93,84.09-67.76,21.85-27.83,40.13-62.55,45.89-97.75,4.82-29.45.77-62.68-24.19-82.28-24.96-19.6-58.19-15.66-85.67-3.99-32.83,13.94-62.23,39.93-84.09,67.76"/>
  <path class="cls-8" d="m689.07,356.63s-72.97,113.24-240.16,184.13c0,0,13.25-18.87,21.85-37.06,0,0-136.39,92.73-300.7-16.96,0,0-2.68-23.05-18.15-23.3l36.81-73.75s97.49,154.96,263.32,8.94c0,0-11.02,3.64-49.37,11.09,0,0,78.05-74.59,144.37-164.63l35.6,60.96s117-.94,106.43,50.59"/>
  <path class="cls-2" d="m170.06,486.73c52.2,14.51,193.33,65.28,346.72-127.04-11.14,2.34-42.22,9.3-52.44,11.64,20.03-21.6,40.21-42.76,59.33-64.99-4.16,22.67-2.77,39.11-2.77,39.11,7.84,5.35,22.09,6.84,39.43,5.21-16.5,15.2-27.71,31.31-28.51,46.74,0,0,8.4,21.89,37.53,24.61-12.49,11.65-28.58,24.13-28.58,24.13,34.3-9.63,75.24-33.08,75.24-33.08-37.5,34.95-80.06,64.63-125.46,88.63l15.92-45.92c-96.73,73.95-212.94,129.83-336.42,30.96"/>
  <path class="cls-3" d="m170.06,486.73c31.8,8.84,96.61,31.14,177.09,3.73-28.1-.35-45.51-5.93-45.51-5.93,124.49-7.71,214.79-124.77,214.79-124.77.02.1.02.21.03.32.11-.13.21-.26.32-.39-11.14,2.34-42.22,9.3-52.44,11.64,20.03-21.6,40.21-42.76,59.33-64.99-4.16,22.67-2.77,39.11-2.77,39.11,5.97,4.07,15.64,5.91,27.57,5.83-5.25,10.9-13.79,19.78-27.29,22.27,0,0-43.94,65.77-116.39,102.97,0,0,19.8-1.69,44.06-11.8,0,0-123.67,106.62-278.81,22.01"/>
  <path class="cls-6" d="m561.73,256.62c44.35-56.48,105.52-82.45,136.63-58.02,31.11,24.43,20.38,90.02-23.98,146.49-44.35,56.48-105.52,82.45-136.63,58.02-31.11-24.43-20.38-90.02,23.98-146.49"/>
  <path class="cls-2" d="m561.73,256.62c44.35-56.48,105.52-82.45,136.63-58.02,13.51,10.61,19.12,28.98,17.53,50.99-6.55-69.52-81.69-61.17-121.29-8.14,72.01-16.69,72.63,72.15,19.28,116.27-32.29,26.7-66.85,24.65-73.73-6.73-17.71,84.48,88.45,54.92,138.31-14.07.75-1.04,1.73-1.36,2.86-1.11-2.21,3.12-4.52,6.21-6.93,9.28-44.35,56.48-105.52,82.45-136.63,58.02-4.53-3.56-10.2-8.28-12.98-13.43-2.68-4.97-2.54-10.31-3.64-16.47-5.6-31.32,8.93-76.28,40.6-116.59"/>
  <path class="cls-5" d="m594.6,241.45c32.02-28.63,68.1-39.21,88.39-23.28,25.15,19.75,16.47,72.79-19.39,118.45-27.47,34.98-62.92,55.49-89.31,54.29,23.43-5.4,50.43-22.77,72.36-48.71,35.86-42.44,44.54-91.72,19.39-110.08-16.76-12.23-44.31-7.64-71.43,9.33"/>
  <path class="cls-3" d="m170.06,486.73s121.85,111.92,336.42-30.96c-82.98,74.56-228.48,141.33-336.42,30.96"/>
  <path class="cls-3" d="m134.92,438.96s7.08-56.89,69.93-52.16c0,0-18.19,12.48-23.06,30.06-21.6-.75-33.3,5.72-46.87,22.1"/>
  <path class="cls-7" d="m204.86,386.81s-18.19,12.48-23.06,30.06c-4.77-3.99-17.51-9.69-17.51-9.69,17.89-17.43,40.57-20.37,40.57-20.37"/>
  <path class="cls-8" d="m571.45,429.46c10.03-2.04,20.05-4.08,30.08-6.12l111.08-22.58-21.83,53.72c-4.39,10.81-8.79,21.62-13.18,32.44-4.39,10.8-8.78,21.61-13.17,32.41-3.53,8.69-8.71,16.52-15.14,23.33-7.11,7.53-15.62,13.51-25.75,15.98-.75,1.84-1.49,3.67-2.24,5.51-2.83,6.96-5.66,13.92-8.49,20.88l-6.27,15.44-16.33,3.32c-9.9,2.01-19.79,4.02-29.69,6.03l-22.61,4.6h0s-16.33,3.32-16.33,3.32c-25.58,5.2-51.15,10.4-76.73,15.6l-76.42,15.53c-9.92,2.02-19.83,4.03-29.74,6.05l-68.17,13.86c-9.91,2.02-19.83,4.03-29.74,6.05l-31.19,6.34s-.03,0-.05,0c-18.87,3.84-37.74,7.67-56.61,11.51-6.68,1.36-13.22.96-19.14-.94-5.56,4.15-11.81,7.23-18.83,8.66-19.73,4.01-39.47,8.02-59.2,12.03-18.91,3.84-36.65-6.46-42.37-24.96-3.44-11.14-1.77-22.49,2.54-33.1,5.97-14.7,11.95-29.41,17.93-44.11,5.98-14.71,11.95-29.42,17.93-44.12,3.54-8.71,8.67-16.57,15.15-23.39,7.48-7.88,16.44-14.08,27.25-16.28,16.88-3.43,33.77-6.86,50.65-10.3l25.86-5.26c26.58-5.4,53.16-10.81,79.74-16.21.06-.01.12-.02.18-.04l20.24-4.12c23.93-4.86,47.85-9.73,71.78-14.59l26.13-5.31c26.4-5.37,52.8-10.73,79.19-16.1l19.87-4.04c30.72-6.25,61.44-12.49,92.16-18.74l11.45-2.33Z"/>
  <path class="cls-1" d="m569.76,461.53c12.66-2.57,25.31-5.15,37.97-7.72-4.39,10.81-8.79,21.64-13.18,32.44-4.39,10.8-8.78,21.61-13.17,32.41,8.17-1.66,16.34-3.32,24.51-4.98,4.39-10.8,8.78-21.61,13.17-32.41,4.39-10.8,8.79-21.62,13.18-32.44,9.9-2.01,19.79-4.02,29.74-6.05-4.39,10.81-8.79,21.64-13.18,32.44-4.39,10.8-8.78,21.61-13.17,32.41-2.03,5-5.05,9.58-8.94,13.7-3.89,4.12-7.56,6.53-10.96,7.22-4.95,1.01-9.84,2-14.73,2.99-2.83,6.98-5.67,13.95-8.5,20.91-2.83,6.96-5.66,13.92-8.49,20.88-9.9,2.01-19.79,4.02-29.69,6.03,2.83-6.96,5.66-13.92,8.49-20.88,2.83-6.96,5.66-13.94,8.5-20.91-4.95,1.01-9.84,2-14.73,2.99-3.39.69-5.59-.52-6.53-3.66-.94-3.14-.39-7.21,1.64-12.21,3.14-7.73,6.29-15.49,9.43-23.21,3.14-7.73,6.29-15.49,9.44-23.23-.27-5.56-.54-11.14-.81-16.72m-3.57.73c-4.06,10-8.13,20.01-12.2,30.01-11.57,6.01-23.09,12.01-34.6,18.01,3.19-7.85,6.38-15.7,9.58-23.57-8.11,1.65-16.22,3.3-24.34,4.95-3.56,8.76-7.12,17.53-10.67,26.27-3.55,8.74-7.11,17.5-10.66,26.24,15.05-7.81,30.16-15.63,45.26-23.46-2.59,6.37-5.18,12.74-7.77,19.12-15.11,7.82-30.21,15.65-45.26,23.46-2.25,5.54-4.5,11.07-6.75,16.61,8.11-1.65,16.22-3.3,24.34-4.95,1.86-4.58,3.73-9.17,5.59-13.76,10.64-3.85,21.29-7.71,31.99-11.58-2.56,6.29-5.11,12.58-7.66,18.86-2.55,6.28-5.1,12.55-7.65,18.83-27.96,5.68-55.92,11.37-83.82,17.04,3.12-7.67,6.24-15.35,9.36-23.04-1.48-4.29-2.95-8.58-4.37-12.88,4.01-2.07,8.07-4.16,12.14-6.24,4.37-10.74,8.73-21.49,13.1-32.23,4.37-10.74,8.73-21.49,13.1-32.24-.33-5.55-.6-11.13-.86-16.71,30.72-6.25,61.44-12.49,92.16-18.74Zm-191.23,38.88c26.58-5.4,53.21-10.82,79.85-16.23,3.34-.68,5.45.58,6.41,3.7.97,3.14.45,7.2-1.58,12.2-4.16,10.25-8.32,20.49-12.48,30.72-1.3,3.21-2.48,5.91-3.49,8.08-1.02,2.18-2.17,4.16-3.42,5.94-1.26,1.79-2.32,3.24-3.31,4.37-.99,1.13-2.36,2.31-4.13,3.54-1.76,1.23-3.41,2.28-4.91,3.12-1.57.88-3.72,2.01-6.59,3.48-.84,7.9-1.68,15.82-2.51,23.7-.83,7.89-1.67,15.79-2.5,23.68-10.93,2.22-21.86,4.44-32.73,6.65.61-6.05,1.22-12.09,1.88-18.15.67-6.06,1.28-12.11,1.95-18.19-3.68,1.9-7.35,3.79-10.96,5.67-2.37,5.84-4.75,11.69-7.12,17.51-2.37,5.82-4.74,11.66-7.11,17.49-9.95,2.02-19.85,4.04-29.74,6.05,3.12-7.67,6.24-15.35,9.36-23.04-1.48-4.29-2.95-8.58-4.43-12.87,4.07-2.08,8.13-4.17,12.2-6.25,4.37-10.74,8.73-21.49,13.1-32.23,4.37-10.74,8.73-21.49,13.1-32.24-.33-5.55-.6-11.13-.86-16.71Zm54.94,5.71c-8.11,1.65-16.22,3.3-24.33,4.95-3.56,8.76-7.12,17.53-10.67,26.27-3.55,8.74-7.11,17.5-10.66,26.24,9.44-4.92,18.88-9.85,28.33-14.77,2.89-7.11,5.78-14.22,8.67-21.34,2.89-7.11,5.78-14.22,8.68-21.35Zm-152.86,14.19c26.58-5.4,53.21-10.82,79.85-16.23,3.34-.68,5.53.55,6.47,3.69.94,3.14.39,7.21-1.64,12.21-4.16,10.25-8.32,20.49-12.48,30.72-3.29,8.1-6.33,13.81-9.11,17.09-2.8,3.31-7.51,6.65-14.06,10.06-15.86,8.25-31.72,16.51-47.53,24.75-2.37,5.84-4.75,11.69-7.12,17.51-2.37,5.82-4.74,11.66-7.11,17.49-9.95,2.02-19.85,4.04-29.74,6.05,3.12-7.67,6.24-15.35,9.36-23.04-1.48-4.29-2.95-8.58-4.37-12.88,4.01-2.07,8.08-4.16,12.14-6.24,4.37-10.74,8.73-21.49,13.1-32.23,4.37-10.74,8.73-21.49,13.1-32.24-.33-5.55-.6-11.13-.86-16.71Zm54.94,5.71c-8.11,1.65-16.22,3.3-24.34,4.95-3.56,8.76-7.12,17.53-10.67,26.27-3.55,8.74-7.11,17.5-10.66,26.24,9.44-4.92,18.89-9.85,28.33-14.77,2.89-7.11,5.78-14.22,8.67-21.34,2.89-7.11,5.78-14.22,8.68-21.35Zm-155.1,14.65c26.58-5.4,53.16-10.81,79.74-16.21,3.45-.7,5.65.52,6.59,3.66.94,3.14.39,7.21-1.64,12.21-2.08,5.12-4.17,10.25-6.24,15.36-9.95,2.02-19.85,4.04-29.74,6.05,2.08-5.11,4.16-10.24,6.24-15.36-8.17,1.66-16.34,3.32-24.45,4.97-4.16,10.25-8.32,20.49-12.48,30.72,13.92-2.83,27.84-5.66,41.77-8.49,3.45-.7,5.65.51,6.59,3.65.94,3.14.37,7.28-1.71,12.39-2.38,5.87-4.77,11.73-7.15,17.6-2.38,5.87-4.77,11.73-7.15,17.6-2.47,6.07-6.04,11.58-10.73,16.52-4.66,4.92-9.03,7.81-13.17,8.65-18.87,3.84-37.74,7.67-56.61,11.51-3.39.69-5.62-.51-6.59-3.65-.97-3.12-.39-7.21,1.64-12.21,3.02-7.44,6.05-14.88,9.07-22.32,9.89-2.01,19.79-4.02,29.74-6.05-3.02,7.44-6.05,14.88-9.07,22.32,8.11-1.65,16.28-3.31,24.45-4.97,2.63-6.48,5.27-12.98,7.91-19.46,2.63-6.48,5.28-12.99,7.92-19.49-13.92,2.83-27.85,5.66-41.77,8.49-3.39.69-5.62-.51-6.59-3.65-.97-3.12-.37-7.28,1.71-12.39,4.16-10.24,8.32-20.47,12.48-30.72-.27-5.56-.54-11.14-.75-16.73Zm-78.08,113.7c5.98-14.7,11.95-29.41,17.92-44.11,5.98-14.7,11.95-29.41,17.93-44.12-8.11,1.65-16.22,3.3-24.33,4.95-5.98,14.72-11.96,29.42-17.93,44.13-5.97,14.7-11.95,29.41-17.92,44.11,8.11-1.65,16.22-3.3,24.33-4.95Zm60.77-110.18c3.45-.7,5.61.52,6.53,3.68.91,3.14.34,7.22-1.7,12.22-5.98,14.72-11.96,29.42-17.93,44.12-5.97,14.7-11.95,29.41-17.92,44.11-2.03,5-4.98,9.57-8.83,13.67-3.87,4.13-7.5,6.52-10.95,7.22-19.73,4.01-39.47,8.02-59.2,12.03-3.34.68-5.5-.53-6.48-3.67-.97-3.12-.4-7.21,1.64-12.21,5.98-14.7,11.95-29.41,17.93-44.11,5.97-14.7,11.95-29.41,17.93-44.12,2.03-5,4.98-9.57,8.89-13.69,3.93-4.14,7.57-6.54,10.9-7.22,19.73-4.01,39.47-8.02,59.2-12.03Z"/>
  <path class="cls-4" d="m465.41,531.79l20.22-4.11-6.08,14.96-4.14,10.18,9.75-5.06c11.84-6.14,23.68-12.28,35.52-18.41-1.03,2.52-2.05,5.05-3.08,7.57-14.65,7.59-29.3,15.17-43.94,22.77l-1.32.69-.56,1.38c-2.25,5.54-4.5,11.07-6.75,16.61l-2.84,6.99,7.4-1.5c8.11-1.65,16.22-3.3,24.34-4.95l2.13-.43.82-2.01c1.64-4.03,3.27-8.06,4.91-12.09,7.25-2.62,14.5-5.25,21.75-7.87-1.41,3.48-2.83,6.95-4.24,10.43-2.28,5.61-4.56,11.21-6.83,16.82-24.77,5.04-49.53,10.07-74.3,15.1,2.17-5.35,4.35-10.69,6.52-16.04l.57-1.41-.49-1.44c-1.1-3.18-2.19-6.36-3.26-9.55,3.01-1.55,6.03-3.1,9.05-4.64l1.34-.69.57-1.39,12.97-31.91Z"/>
  <path class="cls-4" d="m366.34,551.93l20.22-4.11-6.08,14.96-4.15,10.21,9.77-5.1c9.44-4.92,18.89-9.85,28.33-14.77l1.32-.69.56-1.38,4.11-10.12,16.61-3.38,3.45-.7-.48,1.03c-.87,1.86-1.88,3.65-3.06,5.32-.96,1.36-1.95,2.78-3.04,4.03-.95,1.09-2.22,2.06-3.4,2.89-1.48,1.03-3,2.03-4.57,2.91-2.12,1.18-4.29,2.3-6.45,3.4l-1.95,1-.23,2.18c-.84,7.9-1.67,15.8-2.51,23.71-.73,6.91-1.46,13.82-2.19,20.72-8.15,1.66-16.29,3.31-24.44,4.97.43-4.22.87-8.43,1.33-12.64.67-6.06,1.28-12.12,1.95-18.18l.83-7.52-6.72,3.48c-3.65,1.89-7.31,3.78-10.97,5.68l-1.32.69-.56,1.38c-2.37,5.84-4.74,11.67-7.12,17.51-2.1,5.16-4.19,10.32-6.29,15.47-6.74,1.37-13.48,2.74-20.22,4.11,2.17-5.35,4.35-10.69,6.52-16.04l.57-1.41-.49-1.43c-1.1-3.18-2.19-6.36-3.29-9.55,3.02-1.55,6.05-3.1,9.07-4.65l1.34-.69.57-1.39,12.97-31.91Z"/>
  <path class="cls-4" d="m268.43,571.84l20.22-4.11-6.08,14.96-4.15,10.21,9.77-5.09c9.44-4.92,18.88-9.85,28.33-14.77l1.32-.69.56-1.38,4.11-10.12,15.46-3.14,4.56-.93c-1.6,3.38-3.46,6.75-5.47,9.13-3.13,3.69-8.6,6.88-12.84,9.09-15.85,8.24-31.69,16.49-47.53,24.75l-1.32.69-.56,1.38c-2.37,5.84-4.74,11.67-7.12,17.51-2.1,5.16-4.19,10.32-6.29,15.47-6.74,1.37-13.48,2.74-20.22,4.11,2.17-5.35,4.35-10.69,6.52-16.04l.57-1.41-.49-1.43c-1.1-3.18-2.19-6.36-3.26-9.55,3.01-1.55,6.03-3.1,9.05-4.64l1.34-.69.57-1.39,12.97-31.91Z"/>
  <path class="cls-4" d="m168.21,592.21l20.16-4.1-.07.17,7.4-1.5c13.92-2.83,27.84-5.66,41.77-8.49,1.23-.25,1.56-.33,1.91.85.86,2.87-.51,7.06-1.58,9.71-2.38,5.87-4.77,11.73-7.15,17.6-2.38,5.87-4.77,11.73-7.15,17.6-2.32,5.71-5.68,10.79-9.92,15.27-2.81,2.97-6.9,6.62-11.04,7.46-18.87,3.84-37.74,7.67-56.61,11.51-1.22.25-1.56.29-1.92-.88-.87-2.8.47-6.91,1.52-9.49,2.75-6.77,5.5-13.54,8.25-20.31,6.74-1.37,13.48-2.74,20.22-4.11-2.08,5.11-4.15,10.22-6.23,15.33l-2.84,6.99,7.4-1.5c8.15-1.66,16.3-3.31,24.45-4.97l2.13-.43.82-2.01c2.64-6.49,5.27-12.97,7.91-19.46,2.64-6.5,5.28-12.99,7.92-19.49l2.84-6.99-7.4,1.5c-13.92,2.83-27.85,5.66-41.77,8.49-1.22.25-1.56.29-1.92-.88-.69-2.23.05-5.35.91-7.84Z"/>
  <path class="cls-4" d="m561.08,512.34l9.65-1.96,10.52-2.14-3.61,8.89-2.84,6.99,7.4-1.5c8.17-1.66,16.34-3.32,24.51-4.98l2.13-.43.82-2.01,5.64-13.88,20.22-4.11-3.61,8.89c-1.89,4.65-4.7,8.8-8.14,12.44-2.2,2.33-5.56,5.37-8.82,6.03-4.91,1-9.82,2-14.73,2.99l-2.13.43-.82,2.01c-2.83,6.97-5.67,13.94-8.5,20.91-2.56,6.29-5.11,12.58-7.67,18.87-6.72,1.37-13.44,2.73-20.16,4.1,1.88-4.63,3.76-9.26,5.64-13.89,2.83-6.97,5.67-13.94,8.5-20.91l2.84-6.99-7.4,1.5c-4.91,1-9.82,2-14.73,2.99-1.21.25-1.51.3-1.85-.86-.86-2.86.44-6.9,1.51-9.53l5.64-13.88Z"/>
  <polygon class="cls-4" points="527.32 501.53 527.5 501.49 527.29 501.6 527.32 501.53"/>
  <path class="cls-4" d="m71.1,611.95l-4.7,11.56c-5.97,14.7-11.95,29.41-17.93,44.11-1.05,2.59-2.39,6.69-1.52,9.49.36,1.15.6,1.15,1.8.9,19.73-4.01,39.47-8.02,59.2-12.03,3.3-.67,6.59-3.65,8.81-6.02,3.42-3.65,6.15-7.8,8.03-12.43,5.97-14.7,11.95-29.41,17.92-44.11l2.67-6.58-5.51,1.12-14.71,2.99-4.7,11.56c-5.97,14.7-11.95,29.41-17.92,44.11l-.82,2.01-2.13.43c-8.11,1.65-16.22,3.3-24.33,4.95l-7.4,1.5,2.84-6.99c5.97-14.7,11.95-29.41,17.92-44.11l2.67-6.58-20.22,4.11Z"/>
  <polygon class="cls-8" points="620.77 406.85 576.47 431.62 614.2 430.63 620.77 406.85"/>
</svg>